<svg width="225" height="51" viewBox="0 0 225 51" fill="none" xmlns="http://www.w3.org/2000/svg">
<g clip-path="url(#clip0_233_600)">
<path d="M10.76 48.6C9.69333 48.6 8.82667 48.2533 8.16 47.56C7.49333 46.8933 7.16 46.04 7.16 45V32.36C7.16 31.2933 6.61333 30.76 5.52 30.76H1.48V26.84H5.52C6.61333 26.84 7.16 26.3067 7.16 25.24V12.6C7.16 11.56 7.49333 10.7067 8.16 10.04C8.82667 9.34666 9.69333 9 10.76 9H17.28V12.52H12.2C11.48 12.52 11.12 12.92 11.12 13.72V25.28C11.12 26.2133 10.84 26.9867 10.28 27.6C9.74667 28.1867 9.01333 28.48 8.08 28.48H7.64V29.12H8.08C9.01333 29.12 9.74667 29.4267 10.28 30.04C10.84 30.6267 11.12 31.3867 11.12 32.32V43.88C11.12 44.68 11.48 45.08 12.2 45.08H17.28V48.6H10.76ZM28.8441 48.6V45.08H33.9241C34.6441 45.08 35.0041 44.68 35.0041 43.88V32.32C35.0041 31.3867 35.2707 30.6267 35.8041 30.04C36.3641 29.4267 37.1107 29.12 38.0441 29.12H38.5241V28.48H38.0441C37.1107 28.48 36.3641 28.1867 35.8041 27.6C35.2707 26.9867 35.0041 26.2133 35.0041 25.28V13.72C35.0041 12.92 34.6441 12.52 33.9241 12.52H28.8441V9H35.3641C36.4307 9 37.2974 9.34666 37.9641 10.04C38.6574 10.7067 39.0041 11.56 39.0041 12.6V25.24C39.0041 26.3067 39.5374 26.84 40.6041 26.84H44.6441V30.76H40.6041C39.5374 30.76 39.0041 31.2933 39.0041 32.36V45C39.0041 46.04 38.6574 46.8933 37.9641 47.56C37.2974 48.2533 36.4307 48.6 35.3641 48.6H28.8441Z" fill="#FDE047"/>
<path d="M58.856 40.448C57.32 40.448 55.9227 40.1067 54.664 39.424C53.4267 38.72 52.4347 37.7067 51.688 36.384C50.9627 35.04 50.6 33.408 50.6 31.488V26.112C50.6 23.232 51.4107 21.024 53.032 19.488C54.6533 17.9307 56.8507 17.152 59.624 17.152C62.376 17.152 64.4987 17.888 65.992 19.36C67.5067 20.8107 68.264 22.784 68.264 25.28V25.408H64.104V25.152C64.104 24.3627 63.9333 23.648 63.592 23.008C63.272 22.368 62.7813 21.8667 62.12 21.504C61.4587 21.12 60.6267 20.928 59.624 20.928C58.1307 20.928 56.9573 21.3867 56.104 22.304C55.2507 23.2213 54.824 24.4693 54.824 26.048V31.552C54.824 33.1093 55.2507 34.368 56.104 35.328C56.9573 36.2667 58.152 36.736 59.688 36.736C61.224 36.736 62.344 36.3307 63.048 35.52C63.752 34.7093 64.104 33.6853 64.104 32.448V32.128H58.792V28.544H68.264V40H64.36V37.856H63.784C63.6347 38.2187 63.3893 38.6027 63.048 39.008C62.728 39.4133 62.2373 39.7547 61.576 40.032C60.9147 40.3093 60.008 40.448 58.856 40.448ZM78.7315 40.448C76.4275 40.448 74.5928 39.8187 73.2275 38.56C71.8835 37.3013 71.2115 35.5413 71.2115 33.28V31.168H75.4355V33.28C75.4355 34.2827 75.7128 35.072 76.2675 35.648C76.8222 36.2027 77.6008 36.48 78.6035 36.48C79.5422 36.48 80.2675 36.2027 80.7795 35.648C81.3128 35.0933 81.5795 34.304 81.5795 33.28V21.44H77.7395V17.6H88.3635V21.44H85.8035V33.28C85.8035 35.6053 85.1742 37.3867 83.9155 38.624C82.6568 39.84 80.9288 40.448 78.7315 40.448ZM100.471 40.448C98.6361 40.448 97.0574 40.1173 95.7348 39.456C94.4334 38.7733 93.4308 37.8133 92.7268 36.576C92.0441 35.3173 91.7028 33.8347 91.7028 32.128V17.6H95.9268V32.256C95.9268 33.6213 96.3108 34.6987 97.0788 35.488C97.8681 36.2773 98.9988 36.672 100.471 36.672C101.943 36.672 103.063 36.2773 103.831 35.488C104.62 34.6987 105.015 33.6213 105.015 32.256V17.6H109.239V32.128C109.239 33.8347 108.887 35.3173 108.183 36.576C107.5 37.8133 106.497 38.7733 105.175 39.456C103.873 40.1173 102.305 40.448 100.471 40.448ZM121.456 40V17.6H125.68V40H121.456ZM135.077 40V21.44H128.549V17.6H145.829V21.44H139.301V40H135.077ZM164.374 40.448C161.601 40.448 159.403 39.68 157.782 38.144C156.161 36.5867 155.35 34.368 155.35 31.488V26.112C155.35 23.232 156.161 21.024 157.782 19.488C159.403 17.9307 161.601 17.152 164.374 17.152C167.126 17.152 169.249 17.9093 170.742 19.424C172.257 20.9173 173.014 22.976 173.014 25.6V25.792H168.854V25.472C168.854 24.1493 168.481 23.0613 167.734 22.208C167.009 21.3547 165.889 20.928 164.374 20.928C162.881 20.928 161.707 21.3867 160.854 22.304C160.001 23.2213 159.574 24.4693 159.574 26.048V31.552C159.574 33.1093 160.001 34.3573 160.854 35.296C161.707 36.2133 162.881 36.672 164.374 36.672C165.889 36.672 167.009 36.2453 167.734 35.392C168.481 34.5173 168.854 33.4293 168.854 32.128V31.552H173.014V32C173.014 34.624 172.257 36.6933 170.742 38.208C169.249 39.7013 167.126 40.448 164.374 40.448ZM176.584 40V17.6H180.616V40H176.584ZM191.132 40.256C189.894 40.256 188.806 39.9787 187.868 39.424C186.95 38.848 186.236 38.0587 185.724 37.056C185.212 36.0533 184.956 34.9013 184.956 33.6V24.128H188.988V33.28C188.988 34.4747 189.276 35.3707 189.852 35.968C190.449 36.5653 191.292 36.864 192.38 36.864C193.617 36.864 194.577 36.4587 195.26 35.648C195.942 34.816 196.284 33.664 196.284 32.192V24.128H200.316V40H196.348V37.92H195.772C195.516 38.4533 195.036 38.976 194.332 39.488C193.628 40 192.561 40.256 191.132 40.256ZM214.339 40.448C212.909 40.448 211.811 40.2027 211.043 39.712C210.275 39.2213 209.709 38.6773 209.347 38.08H208.771V40H204.803V17.6H208.835V25.952H209.411C209.645 25.568 209.955 25.2053 210.339 24.864C210.744 24.5227 211.267 24.2453 211.907 24.032C212.568 23.7973 213.379 23.68 214.339 23.68C215.619 23.68 216.803 24 217.891 24.64C218.979 25.2587 219.853 26.176 220.515 27.392C221.176 28.608 221.507 30.08 221.507 31.808V32.32C221.507 34.048 221.176 35.52 220.515 36.736C219.853 37.952 218.979 38.88 217.891 39.52C216.803 40.1387 215.619 40.448 214.339 40.448ZM213.123 36.928C214.36 36.928 215.395 36.5333 216.227 35.744C217.059 34.9333 217.475 33.76 217.475 32.224V31.904C217.475 30.368 217.059 29.2053 216.227 28.416C215.416 27.6053 214.381 27.2 213.123 27.2C211.885 27.2 210.851 27.6053 210.019 28.416C209.187 29.2053 208.771 30.368 208.771 31.904V32.224C208.771 33.76 209.187 34.9333 210.019 35.744C210.851 36.5333 211.885 36.928 213.123 36.928Z" fill="black"/>
</g>
<defs>
<clipPath id="clip0_233_600">
<rect width="225" height="51" fill="white"/>
</clipPath>
</defs>
</svg>
